<svg version="1.1" id="Layer_1" xmlns="http://www.w3.org/2000/svg" xmlns:xlink="http://www.w3.org/1999/xlink" x="0px" y="0px"
	 width="100%" viewBox="0 0 500 500" enable-background="new 0 0 500 500" xml:space="preserve">
<path fill="#000000" opacity="1.000000" stroke="none" 
	d="
M293.000000,501.000000 
	C195.333359,501.000000 98.166710,501.000000 1.000052,501.000000 
	C1.000035,334.333405 1.000035,167.666794 1.000017,1.000142 
	C167.666565,1.000094 334.333130,1.000094 500.999756,1.000047 
	C500.999847,167.666519 500.999847,334.333038 500.999939,500.999786 
	C431.833344,501.000000 362.666656,501.000000 293.000000,501.000000 
M176.543381,410.031616 
	C165.142807,426.912201 153.742233,443.792816 141.777710,461.508453 
	C144.505432,461.508453 146.125336,461.508484 147.745239,461.508484 
	C164.075562,461.508484 180.409302,461.325226 196.733948,461.629547 
	C201.149567,461.711884 203.650284,460.288696 205.957108,456.643311 
	C228.347702,421.260040 252.566788,387.104828 274.913635,351.638275 
	C300.496552,311.035828 328.317871,271.754181 356.233124,232.575943 
	C403.841858,165.758408 448.487885,96.829819 494.365784,28.779503 
	C495.062225,27.746506 495.595520,26.603533 496.585571,24.830053 
	C494.267578,24.830053 492.656342,24.830055 491.045135,24.830053 
	C474.548187,24.830048 458.049652,24.950382 441.555481,24.736652 
	C437.905029,24.689348 435.936188,26.000053 433.967072,28.923615 
	C394.070709,88.157707 354.069824,147.321396 314.079865,206.492416 
	C313.102386,207.938736 312.010315,209.307587 310.670593,211.119934 
	C309.644165,208.746490 308.896332,207.104263 308.217133,205.434113 
	C284.362427,146.776871 260.485779,88.128487 236.738525,29.427763 
	C235.368820,26.042025 233.840622,24.633778 229.961197,24.717522 
	C216.469971,25.008747 202.965439,24.991938 189.473068,24.728584 
	C185.568253,24.652369 183.722076,25.749615 182.214432,29.478790 
	C124.717415,171.698547 67.094284,313.867310 9.496921,456.046509 
	C8.849478,457.644745 8.319842,459.290680 7.521306,461.508484 
	C25.638025,461.508484 42.939552,461.358856 60.234993,461.617004 
	C64.395706,461.679077 66.274788,460.353485 67.774841,456.512939 
	C108.106247,353.252808 148.560196,250.040497 188.996796,146.821426 
	C195.720459,129.658508 202.459641,112.501656 209.396240,94.820526 
	C210.329224,96.901093 211.066757,98.381920 211.670319,99.915474 
	C232.486023,152.804977 253.249527,205.715134 274.186401,258.556580 
	C275.526398,261.938538 275.177734,264.191162 273.188416,267.123322 
	C241.037308,314.512817 209.010605,361.986786 176.543381,410.031616 
M321.862030,306.341370 
	C316.554199,314.200928 311.334534,322.122375 305.886597,329.883575 
	C304.177429,332.318451 303.874847,334.356537 304.997345,337.185211 
	C320.925781,377.325317 336.773834,417.497498 352.496521,457.718567 
	C353.678955,460.743408 355.201477,461.610016 358.314178,461.581696 
	C374.796875,461.431732 391.281708,461.519348 407.765747,461.496521 
	C409.154877,461.494598 410.543732,461.285065 412.310394,461.141205 
	C387.811157,400.948120 363.552826,341.347046 338.986115,280.988281 
	C333.020996,289.793365 327.625305,297.757935 321.862030,306.341370 
z"/>
<path fill="#8B52FE" opacity="1.000000" stroke="none" 
	d="
M176.749557,409.736603 
	C209.010605,361.986786 241.037308,314.512817 273.188416,267.123322 
	C275.177734,264.191162 275.526398,261.938538 274.186401,258.556580 
	C253.249527,205.715134 232.486023,152.804977 211.670319,99.915474 
	C211.066757,98.381920 210.329224,96.901093 209.396240,94.820526 
	C202.459641,112.501656 195.720459,129.658508 188.996796,146.821426 
	C148.560196,250.040497 108.106247,353.252808 67.774841,456.512939 
	C66.274788,460.353485 64.395706,461.679077 60.234993,461.617004 
	C42.939552,461.358856 25.638025,461.508484 7.521306,461.508484 
	C8.319842,459.290680 8.849478,457.644745 9.496921,456.046509 
	C67.094284,313.867310 124.717415,171.698547 182.214432,29.478790 
	C183.722076,25.749615 185.568253,24.652369 189.473068,24.728584 
	C202.965439,24.991938 216.469971,25.008747 229.961197,24.717522 
	C233.840622,24.633778 235.368820,26.042025 236.738525,29.427763 
	C260.485779,88.128487 284.362427,146.776871 308.217133,205.434113 
	C308.896332,207.104263 309.644165,208.746490 310.670593,211.119934 
	C312.010315,209.307587 313.102386,207.938736 314.079865,206.492416 
	C354.069824,147.321396 394.070709,88.157707 433.967072,28.923615 
	C435.936188,26.000053 437.905029,24.689348 441.555481,24.736652 
	C458.049652,24.950382 474.548187,24.830048 491.045135,24.830053 
	C492.656342,24.830055 494.267578,24.830053 496.585571,24.830053 
	C495.595520,26.603533 495.062225,27.746506 494.365784,28.779503 
	C448.487885,96.829819 403.841858,165.758408 356.233124,232.575943 
	C328.317871,271.754181 300.496552,311.035828 274.913635,351.638275 
	C252.566788,387.104828 228.347702,421.260040 205.957108,456.643311 
	C203.650284,460.288696 201.149567,461.711884 196.733948,461.629547 
	C180.409302,461.325226 164.075562,461.508484 147.745239,461.508484 
	C146.125336,461.508484 144.505432,461.508453 141.777710,461.508453 
	C153.742233,443.792816 165.142807,426.912201 176.749557,409.736603 
z"/>
<path fill="#8B51FD" opacity="1.000000" stroke="none" 
	d="
M322.045837,306.031921 
	C327.625305,297.757935 333.020996,289.793365 338.986115,280.988281 
	C363.552826,341.347046 387.811157,400.948120 412.310394,461.141205 
	C410.543732,461.285065 409.154877,461.494598 407.765747,461.496521 
	C391.281708,461.519348 374.796875,461.431732 358.314178,461.581696 
	C355.201477,461.610016 353.678955,460.743408 352.496521,457.718567 
	C336.773834,417.497498 320.925781,377.325317 304.997345,337.185211 
	C303.874847,334.356537 304.177429,332.318451 305.886597,329.883575 
	C311.334534,322.122375 316.554199,314.200928 322.045837,306.031921 
z"/>
</svg>